<svg viewBox="-8 -4.5 16 9" xmlns="http://www.w3.org/2000/svg" xmlns:xlink="http://www.w3.org/1999/xlink" version="1.1" width="300" height="300" preserveAspectRatio="none"><g stroke-width="0.05" transform="scale(1, -1)"><g transform="translate(-8, -4.5)"><svg viewBox="-4.5 -4.5 9 9" xmlns="http://www.w3.org/2000/svg" xmlns:xlink="http://www.w3.org/1999/xlink" version="1.1" width="16" height="9" preserveAspectRatio="none">
  <g>
    <g stroke-width="0" fill="#FFFFFF" transform="translate(-8, -4.5)" fill-opacity="1">
      <rect width="16" height="9" />
    </g>
    <g>
      <g transform="translate(-1.247077, 0.72)">
        <g>
          <g transform="scale(0.5)">
            <g transform="translate(-0.248567, -0.320797)">
              <path d="M0.458281,0.318804 C0.458281,0.398506 0.4533,0.478207 0.418431,0.55193 C0.372603,0.647572 0.290909,0.663512 0.249066,0.663512 C0.18929,0.663512 0.116563,0.637609 0.075716,0.544956 C0.043836,0.476214 0.038854,0.398506 0.038854,0.318804 C0.038854,0.244085 0.042839,0.154421 0.083686,0.078705 C0.126526,-0.001993 0.199253,-0.021918 0.24807,-0.021918 C0.301868,-0.021918 0.377584,-0.000996 0.42142,0.093649 C0.4533,0.162391 0.458281,0.2401 0.458281,0.318804 Z M0.24807,0 C0.209215,0 0.150436,0.024907 0.132503,0.120548 C0.121544,0.180324 0.121544,0.27198 0.121544,0.33076 C0.121544,0.394521 0.121544,0.460274 0.129514,0.514072 C0.148443,0.632628 0.223163,0.641594 0.24807,0.641594 C0.280946,0.641594 0.3467,0.623661 0.365629,0.525031 C0.375592,0.46924 0.375592,0.393524 0.375592,0.33076 C0.375592,0.25604 0.375592,0.188294 0.364633,0.124533 C0.349689,0.029888 0.292902,0 0.24807,0 Z" />
            </g>
          </g>
          <g stroke-width="0.025" stroke="#000000" transform="translate(0, -0.221357)" fill-opacity="0">
            <g transform="translate(-0.125828, 0)">
              <line x2="0.251656" />
            </g>
          </g>
        </g>
      </g>
      <g transform="translate(-0, 1.44)">
        <g>
          <g transform="scale(0.5)">
            <g transform="translate(-0.253051, -0.331756)">
              <path d="M0.292902,0.637609 C0.292902,0.661519 0.292902,0.663512 0.269988,0.663512 C0.208219,0.599751 0.120548,0.599751 0.088667,0.599751 L0.088667,0.568867 C0.108593,0.568867 0.167372,0.568867 0.219178,0.59477 L0.219178,0.078705 C0.219178,0.042839 0.216189,0.030884 0.126526,0.030884 L0.094645,0.030884 L0.094645,0 C0.129514,0.002989 0.216189,0.002989 0.25604,0.002989 C0.295891,0.002989 0.382565,0.002989 0.417435,0 L0.417435,0.030884 L0.385554,0.030884 C0.29589,0.030884 0.292902,0.041843 0.292902,0.078705 L0.292902,0.637609 Z" />
            </g>
          </g>
          <g stroke-width="0.025" stroke="#000000" transform="translate(0, -0.215878)" fill-opacity="0">
            <g transform="translate(-0.09863, 0)">
              <line x2="0.197261" />
            </g>
          </g>
        </g>
      </g>
      <g transform="translate(-1.247077, -0.72)">
        <g>
          <g transform="scale(0.5)">
            <g transform="translate(-0.248568, -0.331756)">
              <path d="M0.126526,0.076712 L0.23213,0.179328 C0.387547,0.316812 0.447323,0.37061 0.447323,0.470237 C0.447323,0.583811 0.357659,0.663512 0.236115,0.663512 C0.123537,0.663512 0.049813,0.571856 0.049813,0.483188 C0.049813,0.427397 0.099626,0.427397 0.102615,0.427397 C0.119552,0.427397 0.154421,0.439352 0.154421,0.480199 C0.154421,0.506102 0.136488,0.532005 0.101619,0.532005 C0.093649,0.532005 0.091656,0.532005 0.088667,0.531009 C0.111582,0.595766 0.16538,0.632628 0.223163,0.632628 C0.313823,0.632628 0.356663,0.55193 0.356663,0.470237 C0.356663,0.390535 0.306849,0.311831 0.252055,0.250062 L0.060772,0.036862 C0.049813,0.025903 0.049813,0.02391 0.049813,0 L0.419427,0 L0.447323,0.17335 L0.422416,0.17335 C0.417435,0.143462 0.410461,0.099626 0.400498,0.084682 C0.393524,0.076712 0.327771,0.076712 0.305853,0.076712 L0.126526,0.076712 Z" />
            </g>
          </g>
          <g stroke-width="0.025" stroke="#000000" transform="translate(0, -0.215878)" fill-opacity="0">
            <g transform="translate(-0.119253, 0)">
              <line x2="0.238506" />
            </g>
          </g>
        </g>
      </g>
      <g transform="translate(-0, -1.44)">
        <g>
          <g transform="scale(0.5)">
            <g transform="translate(-0.248568, -0.320797)">
              <path d="M0.288917,0.350685 C0.37061,0.377584 0.428394,0.447323 0.428394,0.526027 C0.428394,0.607721 0.340722,0.663512 0.245081,0.663512 C0.144458,0.663512 0.068742,0.603736 0.068742,0.52802 C0.068742,0.495143 0.09066,0.476214 0.119552,0.476214 C0.150436,0.476214 0.170361,0.498132 0.170361,0.527024 C0.170361,0.576837 0.123537,0.576837 0.108593,0.576837 C0.139477,0.625654 0.20523,0.638605 0.241096,0.638605 C0.281943,0.638605 0.336737,0.616687 0.336737,0.527024 C0.336737,0.515068 0.334745,0.457285 0.308842,0.41345 C0.278954,0.365629 0.245081,0.36264 0.220174,0.361644 C0.212204,0.360648 0.188294,0.358655 0.18132,0.358655 C0.17335,0.357659 0.166376,0.356663 0.166376,0.3467 C0.166376,0.335741 0.17335,0.335741 0.190286,0.335741 L0.234122,0.335741 C0.315816,0.335741 0.352677,0.267995 0.352677,0.170361 C0.352677,0.034869 0.283935,0.005978 0.2401,0.005978 C0.19726,0.005978 0.12254,0.022914 0.087671,0.081694 C0.12254,0.076712 0.153425,0.09863 0.153425,0.136488 C0.153425,0.172354 0.126526,0.192279 0.097634,0.192279 C0.073724,0.192279 0.041843,0.178331 0.041843,0.134496 C0.041843,0.043836 0.134496,-0.021918 0.243088,-0.021918 C0.364633,-0.021918 0.455293,0.068742 0.455293,0.170361 C0.455293,0.252055 0.392528,0.329763 0.288917,0.350685 Z" />
            </g>
          </g>
          <g stroke-width="0.025" stroke="#000000" transform="translate(0, -0.221357)" fill-opacity="0">
            <g transform="translate(-0.124035, 0)">
              <line x2="0.24807" />
            </g>
          </g>
        </g>
      </g>
      <g transform="translate(1.247077, -0.72)">
        <g>
          <g transform="scale(0.5)">
            <g transform="translate(-0.248567, -0.337236)">
              <path d="M0.292902,0.164384 L0.292902,0.077709 C0.292902,0.041843 0.290909,0.030884 0.217186,0.030884 L0.196264,0.030884 L0.196264,0 C0.237111,0.002989 0.288917,0.002989 0.33076,0.002989 C0.372603,0.002989 0.425405,0.002989 0.466252,0 L0.466252,0.030884 L0.44533,0.030884 C0.371606,0.030884 0.369614,0.041843 0.369614,0.077709 L0.369614,0.164384 L0.46924,0.164384 L0.46924,0.195268 L0.369614,0.195268 L0.369614,0.648568 C0.369614,0.668493 0.369614,0.674471 0.353674,0.674471 C0.344707,0.674471 0.341719,0.674471 0.333748,0.662516 L0.027895,0.195268 L0.027895,0.164384 L0.292902,0.164384 Z M0.298879,0.195268 L0.055791,0.195268 L0.298879,0.566874 L0.298879,0.195268 Z" />
            </g>
          </g>
          <g stroke-width="0.025" stroke="#000000" transform="translate(0, -0.218618)" fill-opacity="0">
            <g transform="translate(-0.132403, 0)">
              <line x2="0.264807" />
            </g>
          </g>
        </g>
      </g>
      <g transform="translate(1.247077, 0.72)">
        <g>
          <g transform="scale(0.5)">
            <g transform="translate(-0.248568, -0.320797)">
              <path d="M0.447323,0.200249 C0.447323,0.318804 0.365629,0.418431 0.258032,0.418431 C0.210212,0.418431 0.167372,0.402491 0.131507,0.367621 L0.131507,0.561893 C0.151432,0.555915 0.184309,0.548941 0.216189,0.548941 C0.33873,0.548941 0.408468,0.639601 0.408468,0.652553 C0.408468,0.658531 0.405479,0.663512 0.398506,0.663512 C0.397509,0.663512 0.395517,0.663512 0.390535,0.660523 C0.37061,0.651557 0.321793,0.631631 0.255044,0.631631 C0.215193,0.631631 0.169365,0.638605 0.12254,0.659527 C0.11457,0.662516 0.112578,0.662516 0.110585,0.662516 C0.100623,0.662516 0.100623,0.654545 0.100623,0.638605 L0.100623,0.343711 C0.100623,0.325778 0.100623,0.317808 0.11457,0.317808 C0.121544,0.317808 0.123537,0.320797 0.127522,0.326775 C0.138481,0.342715 0.175342,0.396513 0.25604,0.396513 C0.307846,0.396513 0.332752,0.350685 0.340722,0.332752 C0.356663,0.29589 0.358655,0.257036 0.358655,0.207223 C0.358655,0.172354 0.358655,0.112578 0.334745,0.070735 C0.310834,0.03188 0.273973,0.005978 0.228144,0.005978 C0.155417,0.005978 0.09863,0.05878 0.081694,0.117559 C0.084682,0.116563 0.087671,0.115567 0.09863,0.115567 C0.131507,0.115567 0.148443,0.140473 0.148443,0.164384 C0.148443,0.188295 0.131507,0.2132 0.09863,0.2132 C0.084682,0.2132 0.049813,0.206227 0.049813,0.160399 C0.049813,0.07472 0.118555,-0.021918 0.230137,-0.021918 C0.345704,-0.021918 0.447323,0.073724 0.447323,0.200249 Z" />
            </g>
          </g>
          <g stroke-width="0.025" stroke="#000000" transform="translate(0, -0.221357)" fill-opacity="0">
            <g transform="translate(-0.119253, 0)">
              <line x2="0.238506" />
            </g>
          </g>
        </g>
      </g>
    </g>
    <g>
      <g>
        <line stroke="#000000" x1="-3.117691" y1="-1.8" x2="0" y2="3.6" />
      </g>
      <g>
        <line stroke="#000000" x1="-0.623538" y1="0.36" x2="-3.117691" y2="-1.8" />
      </g>
      <g>
        <line stroke="#000000" x1="0" y1="3.6" x2="-0.623538" y2="0.36" />
      </g>
      <g>
        <line stroke="#000000" x1="0.623538" y1="0.36" x2="-0.623538" y2="0.36" />
      </g>
      <g>
        <line stroke="#000000" x1="0" y1="3.6" x2="0.623538" y2="0.36" />
      </g>
      <g>
        <line stroke="#000000" x1="-0" y1="-0.72" x2="-3.117691" y2="-1.8" />
      </g>
      <g>
        <line stroke="#000000" x1="-0.623538" y1="0.36" x2="-0" y2="-0.72" />
      </g>
      <g>
        <line stroke="#000000" x1="3.117691" y1="-1.8" x2="-3.117691" y2="-1.8" />
      </g>
      <g>
        <line stroke="#000000" x1="-0" y1="-0.72" x2="3.117691" y2="-1.8" />
      </g>
      <g>
        <line stroke="#000000" x1="0.623538" y1="0.36" x2="3.117691" y2="-1.8" />
      </g>
      <g>
        <line stroke="#000000" x1="-0" y1="-0.72" x2="0.623538" y2="0.36" />
      </g>
      <g>
        <line stroke="#000000" x1="0" y1="3.6" x2="3.117691" y2="-1.8" />
      </g>
    </g>
    <g>
      <g transform="translate(0, 3.6)">
        <g>
          <circle stroke="#000000" fill="#FFFFFF" fill-opacity="1" r="0.3" />
          <g transform="scale(0.476841)">
            <g transform="translate(-0.248567, -0.320797)">
              <path d="M0.458281,0.318804 C0.458281,0.398506 0.4533,0.478207 0.418431,0.55193 C0.372603,0.647572 0.290909,0.663512 0.249066,0.663512 C0.18929,0.663512 0.116563,0.637609 0.075716,0.544956 C0.043836,0.476214 0.038854,0.398506 0.038854,0.318804 C0.038854,0.244085 0.042839,0.154421 0.083686,0.078705 C0.126526,-0.001993 0.199253,-0.021918 0.24807,-0.021918 C0.301868,-0.021918 0.377584,-0.000996 0.42142,0.093649 C0.4533,0.162391 0.458281,0.2401 0.458281,0.318804 Z M0.24807,0 C0.209215,0 0.150436,0.024907 0.132503,0.120548 C0.121544,0.180324 0.121544,0.27198 0.121544,0.33076 C0.121544,0.394521 0.121544,0.460274 0.129514,0.514072 C0.148443,0.632628 0.223163,0.641594 0.24807,0.641594 C0.280946,0.641594 0.3467,0.623661 0.365629,0.525031 C0.375592,0.46924 0.375592,0.393524 0.375592,0.33076 C0.375592,0.25604 0.375592,0.188294 0.364633,0.124533 C0.349689,0.029888 0.292902,0 0.24807,0 Z" />
            </g>
          </g>
        </g>
      </g>
      <g transform="translate(-0.623538, 0.36)">
        <g>
          <circle stroke="#000000" fill="#FFFFFF" fill-opacity="1" r="0.3" />
          <g transform="scale(0.608332)">
            <g transform="translate(-0.253051, -0.331756)">
              <path d="M0.292902,0.637609 C0.292902,0.661519 0.292902,0.663512 0.269988,0.663512 C0.208219,0.599751 0.120548,0.599751 0.088667,0.599751 L0.088667,0.568867 C0.108593,0.568867 0.167372,0.568867 0.219178,0.59477 L0.219178,0.078705 C0.219178,0.042839 0.216189,0.030884 0.126526,0.030884 L0.094645,0.030884 L0.094645,0 C0.129514,0.002989 0.216189,0.002989 0.25604,0.002989 C0.295891,0.002989 0.382565,0.002989 0.417435,0 L0.417435,0.030884 L0.385554,0.030884 C0.29589,0.030884 0.292902,0.041843 0.292902,0.078705 L0.292902,0.637609 Z" />
            </g>
          </g>
        </g>
      </g>
      <g transform="translate(0.623538, 0.36)">
        <g>
          <circle stroke="#000000" fill="#FFFFFF" fill-opacity="1" r="0.3" />
          <g transform="scale(0.503132)">
            <g transform="translate(-0.248568, -0.331756)">
              <path d="M0.126526,0.076712 L0.23213,0.179328 C0.387547,0.316812 0.447323,0.37061 0.447323,0.470237 C0.447323,0.583811 0.357659,0.663512 0.236115,0.663512 C0.123537,0.663512 0.049813,0.571856 0.049813,0.483188 C0.049813,0.427397 0.099626,0.427397 0.102615,0.427397 C0.119552,0.427397 0.154421,0.439352 0.154421,0.480199 C0.154421,0.506102 0.136488,0.532005 0.101619,0.532005 C0.093649,0.532005 0.091656,0.532005 0.088667,0.531009 C0.111582,0.595766 0.16538,0.632628 0.223163,0.632628 C0.313823,0.632628 0.356663,0.55193 0.356663,0.470237 C0.356663,0.390535 0.306849,0.311831 0.252055,0.250062 L0.060772,0.036862 C0.049813,0.025903 0.049813,0.02391 0.049813,0 L0.419427,0 L0.447323,0.17335 L0.422416,0.17335 C0.417435,0.143462 0.410461,0.099626 0.400498,0.084682 C0.393524,0.076712 0.327771,0.076712 0.305853,0.076712 L0.126526,0.076712 Z" />
            </g>
          </g>
        </g>
      </g>
      <g transform="translate(-0, -0.72)">
        <g>
          <circle stroke="#000000" fill="#FFFFFF" fill-opacity="1" r="0.3" />
          <g transform="scale(0.483734)">
            <g transform="translate(-0.248568, -0.320797)">
              <path d="M0.288917,0.350685 C0.37061,0.377584 0.428394,0.447323 0.428394,0.526027 C0.428394,0.607721 0.340722,0.663512 0.245081,0.663512 C0.144458,0.663512 0.068742,0.603736 0.068742,0.52802 C0.068742,0.495143 0.09066,0.476214 0.119552,0.476214 C0.150436,0.476214 0.170361,0.498132 0.170361,0.527024 C0.170361,0.576837 0.123537,0.576837 0.108593,0.576837 C0.139477,0.625654 0.20523,0.638605 0.241096,0.638605 C0.281943,0.638605 0.336737,0.616687 0.336737,0.527024 C0.336737,0.515068 0.334745,0.457285 0.308842,0.41345 C0.278954,0.365629 0.245081,0.36264 0.220174,0.361644 C0.212204,0.360648 0.188294,0.358655 0.18132,0.358655 C0.17335,0.357659 0.166376,0.356663 0.166376,0.3467 C0.166376,0.335741 0.17335,0.335741 0.190286,0.335741 L0.234122,0.335741 C0.315816,0.335741 0.352677,0.267995 0.352677,0.170361 C0.352677,0.034869 0.283935,0.005978 0.2401,0.005978 C0.19726,0.005978 0.12254,0.022914 0.087671,0.081694 C0.12254,0.076712 0.153425,0.09863 0.153425,0.136488 C0.153425,0.172354 0.126526,0.192279 0.097634,0.192279 C0.073724,0.192279 0.041843,0.178331 0.041843,0.134496 C0.041843,0.043836 0.134496,-0.021918 0.243088,-0.021918 C0.364633,-0.021918 0.455293,0.068742 0.455293,0.170361 C0.455293,0.252055 0.392528,0.329763 0.288917,0.350685 Z" />
            </g>
          </g>
        </g>
      </g>
      <g transform="translate(-3.117691, -1.8)">
        <g>
          <circle stroke="#000000" fill="#FFFFFF" fill-opacity="1" r="0.3" />
          <g transform="scale(0.45316)">
            <g transform="translate(-0.248567, -0.337236)">
              <path d="M0.292902,0.164384 L0.292902,0.077709 C0.292902,0.041843 0.290909,0.030884 0.217186,0.030884 L0.196264,0.030884 L0.196264,0 C0.237111,0.002989 0.288917,0.002989 0.33076,0.002989 C0.372603,0.002989 0.425405,0.002989 0.466252,0 L0.466252,0.030884 L0.44533,0.030884 C0.371606,0.030884 0.369614,0.041843 0.369614,0.077709 L0.369614,0.164384 L0.46924,0.164384 L0.46924,0.195268 L0.369614,0.195268 L0.369614,0.648568 C0.369614,0.668493 0.369614,0.674471 0.353674,0.674471 C0.344707,0.674471 0.341719,0.674471 0.333748,0.662516 L0.027895,0.195268 L0.027895,0.164384 L0.292902,0.164384 Z M0.298879,0.195268 L0.055791,0.195268 L0.298879,0.566874 L0.298879,0.195268 Z" />
            </g>
          </g>
        </g>
      </g>
      <g transform="translate(3.117691, -1.8)">
        <g>
          <circle stroke="#000000" fill="#FFFFFF" fill-opacity="1" r="0.3" />
          <g transform="scale(0.503132)">
            <g transform="translate(-0.248568, -0.320797)">
              <path d="M0.447323,0.200249 C0.447323,0.318804 0.365629,0.418431 0.258032,0.418431 C0.210212,0.418431 0.167372,0.402491 0.131507,0.367621 L0.131507,0.561893 C0.151432,0.555915 0.184309,0.548941 0.216189,0.548941 C0.33873,0.548941 0.408468,0.639601 0.408468,0.652553 C0.408468,0.658531 0.405479,0.663512 0.398506,0.663512 C0.397509,0.663512 0.395517,0.663512 0.390535,0.660523 C0.37061,0.651557 0.321793,0.631631 0.255044,0.631631 C0.215193,0.631631 0.169365,0.638605 0.12254,0.659527 C0.11457,0.662516 0.112578,0.662516 0.110585,0.662516 C0.100623,0.662516 0.100623,0.654545 0.100623,0.638605 L0.100623,0.343711 C0.100623,0.325778 0.100623,0.317808 0.11457,0.317808 C0.121544,0.317808 0.123537,0.320797 0.127522,0.326775 C0.138481,0.342715 0.175342,0.396513 0.25604,0.396513 C0.307846,0.396513 0.332752,0.350685 0.340722,0.332752 C0.356663,0.29589 0.358655,0.257036 0.358655,0.207223 C0.358655,0.172354 0.358655,0.112578 0.334745,0.070735 C0.310834,0.03188 0.273973,0.005978 0.228144,0.005978 C0.155417,0.005978 0.09863,0.05878 0.081694,0.117559 C0.084682,0.116563 0.087671,0.115567 0.09863,0.115567 C0.131507,0.115567 0.148443,0.140473 0.148443,0.164384 C0.148443,0.188295 0.131507,0.2132 0.09863,0.2132 C0.084682,0.2132 0.049813,0.206227 0.049813,0.160399 C0.049813,0.07472 0.118555,-0.021918 0.230137,-0.021918 C0.345704,-0.021918 0.447323,0.073724 0.447323,0.200249 Z" />
            </g>
          </g>
        </g>
      </g>
    </g>
  </g>
</svg></g></g></svg>